<svg width="32" height="33" viewBox="0 0 32 33" fill="none" xmlns="http://www.w3.org/2000/svg">
<path d="M15.9987 3.15723C8.6467 3.15856 2.66537 9.13989 2.66537 16.4919C2.66537 23.8439 8.6467 29.8252 16 29.8252C23.3507 29.8252 29.332 23.8439 29.3334 16.4919C29.3334 9.13989 23.352 3.15856 15.9987 3.15723ZM16 27.1586C10.1174 27.1586 5.33203 22.3732 5.33203 16.4919C5.33203 10.6106 10.1174 5.82523 15.9987 5.82389C21.8814 5.82523 26.6667 10.6106 26.6667 16.4919C26.6654 22.3732 21.88 27.1586 16 27.1586Z" fill="black"/>
<path d="M16 15.1585H10.6667V17.8251H16V21.8331L21.34 16.4931L16 11.1545V15.1585Z" fill="black"/>
</svg>
