<svg width="54" height="44" viewBox="0 0 54 44" fill="none" xmlns="http://www.w3.org/2000/svg">
<path d="M4.54186 13.0866L26.3101 2.65911C26.8442 2.40323 27.4643 2.39727 28.0033 2.64283L50.1248 12.7216C51.6504 13.4167 51.6951 15.5678 50.1996 16.3256L43.0085 19.9697V23.1125V24.0075C43.0085 24.9773 42.3144 25.8058 41.3567 25.959C38.3282 26.4435 31.7738 27.3982 27.1529 27.3982C22.7135 27.3982 16.4258 26.453 13.4827 25.9663C12.5305 25.8088 11.8441 24.9831 11.8441 24.0179V23.1125V19.9697L4.55414 16.5411L4.73639 35.3982L6.16013 36.5886C6.91465 37.2195 7.09851 38.3053 6.59374 39.1494L5.59464 40.8202C5.20652 41.4692 4.26626 41.4692 3.87814 40.8202L2.87904 39.1494C2.37427 38.3053 2.55813 37.2195 3.31265 36.5886L4.73639 35.3982L4.55414 16.5411C3.09559 15.8551 3.08823 13.783 4.54186 13.0866Z" fill="white"/>
<path d="M43.0085 19.9697L50.1996 16.3256C51.6951 15.5678 51.6504 13.4167 50.1248 12.7216L28.0033 2.64283C27.4643 2.39727 26.8442 2.40323 26.3101 2.65911L4.54186 13.0866C3.08823 13.783 3.09559 15.8551 4.55414 16.5411V16.5411M43.0085 19.9697V18.2207C43.0085 17.2495 42.312 16.4201 41.3528 16.2678C38.3042 15.7839 31.6998 14.8268 27.1529 14.8268C22.6402 14.8268 16.4016 15.7696 13.4786 16.2568C12.5281 16.4153 11.8441 17.24 11.8441 18.2036V19.9697M43.0085 19.9697V23.1125M11.8441 19.9697L4.55414 16.5411M11.8441 19.9697V23.1125M4.55414 16.5411L4.73639 35.3982M4.73639 35.3982L3.31265 36.5886C2.55813 37.2195 2.37427 38.3053 2.87904 39.1494L3.87814 40.8202C4.26626 41.4692 5.20652 41.4692 5.59464 40.8202L6.59374 39.1494C7.09851 38.3053 6.91465 37.2195 6.16013 36.5886L4.73639 35.3982ZM43.0085 23.1125V24.0075C43.0085 24.9773 42.3144 25.8058 41.3567 25.959C38.3282 26.4435 31.7738 27.3982 27.1529 27.3982C22.7135 27.3982 16.4258 26.453 13.4827 25.9663C12.5305 25.8088 11.8441 24.9831 11.8441 24.0179V23.1125M43.0085 23.1125C43.0085 23.1125 33.1314 21.6839 27.1529 21.6839C21.1744 21.6839 11.8441 23.1125 11.8441 23.1125" stroke="black" stroke-width="4"/>
</svg>
