<svg width="49" height="49" viewBox="0 0 49 49" fill="none" xmlns="http://www.w3.org/2000/svg">
<path d="M24.4092 4.88037C20.4536 4.88037 16.5868 6.05335 13.2978 8.25098C10.0088 10.4486 7.44535 13.5722 5.9316 17.2267C4.41785 20.8812 4.02178 24.9026 4.79348 28.7822C5.56519 32.6618 7.47 36.2255 10.2671 39.0225C13.0641 41.8196 16.6278 43.7244 20.5074 44.4961C24.387 45.2678 28.4083 44.8717 32.0629 43.358C35.7174 41.8442 38.841 39.2808 41.0386 35.9918C43.2362 32.7028 44.4092 28.836 44.4092 24.8804C44.4092 22.2539 43.8919 19.6532 42.8868 17.2267C41.8817 14.8002 40.4085 12.5954 38.5513 10.7382C36.6942 8.88106 34.4894 7.40787 32.0629 6.40278C29.6363 5.39769 27.0356 4.88037 24.4092 4.88037ZM24.4092 30.8804C23.2225 30.8804 22.0625 30.5285 21.0758 29.8692C20.0891 29.2099 19.32 28.2728 18.8659 27.1765C18.4118 26.0801 18.293 24.8737 18.5245 23.7098C18.756 22.5459 19.3274 21.4768 20.1665 20.6377C21.0057 19.7986 22.0748 19.2272 23.2386 18.9957C24.4025 18.7641 25.6089 18.883 26.7053 19.3371C27.8016 19.7912 28.7387 20.5603 29.398 21.5469C30.0573 22.5336 30.4092 23.6937 30.4092 24.8804C30.4092 26.4717 29.777 27.9978 28.6518 29.123C27.5266 30.2482 26.0005 30.8804 24.4092 30.8804ZM29.9092 16.5404C28.8463 15.8349 27.6583 15.3393 26.4092 15.0804V9.08037C29.254 9.43646 31.9493 10.5561 34.2092 12.3204L29.9092 16.5404ZM22.4092 15.0804C21.1601 15.3393 19.9721 15.8349 18.9092 16.5404L14.6092 12.2604C16.869 10.4961 19.5644 9.37646 22.4092 9.02037V15.0804ZM16.0692 19.3804C15.3637 20.4432 14.8682 21.6313 14.6092 22.8804H8.60919C8.94772 20.0415 10.0464 17.3467 11.7892 15.0804L16.0692 19.3804ZM14.6092 26.8804C14.8682 28.1295 15.3637 29.3175 16.0692 30.3804L11.7892 34.6804C10.0249 32.4205 8.90527 29.7252 8.54919 26.8804H14.6092ZM18.9092 33.2204C19.9721 33.9258 21.1601 34.4214 22.4092 34.6804V40.6804C19.5644 40.3243 16.869 39.2047 14.6092 37.4404L18.9092 33.2204ZM26.4092 34.6804C27.6583 34.4214 28.8463 33.9258 29.9092 33.2204L34.2092 37.5004C31.9493 39.2647 29.254 40.3843 26.4092 40.7404V34.6804ZM32.7492 30.3804C33.4546 29.3175 33.9502 28.1295 34.2092 26.8804H40.2092C39.8531 29.7252 38.7335 32.4205 36.9692 34.6804L32.7492 30.3804ZM34.2092 22.8804C33.9502 21.6313 33.4546 20.4432 32.7492 19.3804L37.0292 15.0804C38.7935 17.3402 39.9131 20.0356 40.2692 22.8804H34.2092Z" fill="black"/>
</svg>
