<svg width="49" height="49" viewBox="0 0 49 49" fill="none" xmlns="http://www.w3.org/2000/svg">
<path d="M10.4092 18.8784C10.4092 22.6824 11.9392 26.1324 14.4092 28.6584V42.8804C14.4079 43.2217 14.4942 43.5577 14.6598 43.8562C14.8255 44.1547 15.0649 44.4058 15.3552 44.5853C15.6455 44.7649 15.9771 44.867 16.3181 44.8819C16.6591 44.8968 16.9983 44.824 17.3032 44.6704L24.4092 41.1164L31.5152 44.6684C31.8193 44.8222 32.1579 44.8951 32.4984 44.8801C32.8389 44.865 33.1698 44.7625 33.4592 44.5824C34.0492 44.2164 34.4092 43.5744 34.4092 42.8804V28.6604C36.9736 26.0504 38.4101 22.5374 38.4092 18.8784C38.4092 11.1604 32.1292 4.88037 24.4092 4.88037C16.6892 4.88037 10.4092 11.1604 10.4092 18.8784ZM25.3032 37.0904C25.0253 36.9513 24.7189 36.8789 24.4082 36.8789C24.0975 36.8789 23.791 36.9513 23.5132 37.0904L18.4092 39.6444V31.5104C20.2312 32.3784 22.2612 32.8804 24.4092 32.8804C26.5572 32.8804 28.5872 32.3804 30.4092 31.5104V39.6424L25.3032 37.0904ZM24.4092 8.88037C29.9212 8.88037 34.4092 13.3644 34.4092 18.8784C34.4065 21.5299 33.3522 24.0721 31.4774 25.9472C29.6027 27.8223 27.0607 28.8772 24.4092 28.8804C18.8952 28.8804 14.4092 24.3944 14.4092 18.8784C14.4124 16.2274 15.467 13.6859 17.3417 11.8115C19.2165 9.93716 21.7582 8.88302 24.4092 8.88037Z" fill="black"/>
</svg>
