<svg width="49" height="49" viewBox="0 0 49 49" fill="none" xmlns="http://www.w3.org/2000/svg">
<path d="M24.4092 4.88037C13.3812 4.88037 4.40918 13.8524 4.40918 24.8804C4.40918 35.9084 13.3812 44.8804 24.4092 44.8804C35.4372 44.8804 44.4092 35.9084 44.4092 24.8804C44.4092 13.8524 35.4372 4.88037 24.4092 4.88037ZM24.4092 40.8804C15.5872 40.8804 8.40918 33.7024 8.40918 24.8804C8.40918 16.0584 15.5872 8.88037 24.4092 8.88037C33.2312 8.88037 40.4092 16.0584 40.4092 24.8804C40.4092 33.7024 33.2312 40.8804 24.4092 40.8804Z" fill="black"/>
<path d="M16.4092 32.8804L28.3912 28.8804L32.4092 16.8804L20.4092 20.8804L16.4092 32.8804Z" fill="black"/>
</svg>
